# xmcd
#
# Track frame offsets:
#	150
#	11763
#	23311
#	23921
#	38324
#	58491
#	58948
#	71204
#	89085
#	106034
#	106588
#	121262
#	138289
#	152723
#	170861
#	189260
#	202042
#	219451
#
# Disc length: 3127 seconds
#
# Revision: 1
# Processed by: cddbd v1.5.2PL0 Copyright (c) Steve Scherf et al.
# Submitted via: audiograbber 1.83.01
#
DISCID=f60c3512
DTITLE=Hillcrest - Hillcrest Pure Country 70
DYEAR=2013
DGENRE=
TTITLE0=I´m So Lonesome Living Without You -Donny Sawyer
TTITLE1=Down on the Riverina -Jade Hurley
TTITLE2=Vannatta ID -Vannatta
TTITLE3=Faster Horses -Vannatta
TTITLE4=Old Lady -Bec Hance
TTITLE5=Dave ID -Dave Sheriff
TTITLE6=Hearts and Flowers -Dave Sheriff
TTITLE7=Send Me A Letter Amanda -Hallur
TTITLE8=I Haven´t Met You Yet -Kate Linke
TTITLE9=Lonnie ID -Lonnie Bartmess
TTITLE10=Chance to be Together Again -Lonnie Bartmess
TTITLE11=Would You Marry Me Again -Gary Hammond
TTITLE12=Close Enough to Walk -Lisa Lambert and Tim Buppert
TTITLE13=Stand -Brandon McPhee
TTITLE14=Turn The Herd -Lynn Anderson
TTITLE15=Jackson -The Long And Short Of It
TTITLE16=Life´s Like Fishing -The Bobkatz
TTITLE17=One Good Reason -Donna Lantz
EXTD=
EXTT0=
EXTT1=
EXTT2=
EXTT3=
EXTT4=
EXTT5=
EXTT6=
EXTT7=
EXTT8=
EXTT9=
EXTT10=
EXTT11=
EXTT12=
EXTT13=
EXTT14=
EXTT15=
EXTT16=
EXTT17=
PLAYORDER=
